<?xml version="1.0" standalone="no"?>
<!DOCTYPE svg PUBLIC "-//W3C//DTD SVG 20010904//EN"
 "http://www.w3.org/TR/2001/REC-SVG-20010904/DTD/svg10.dtd">
<svg version="1.0" xmlns="http://www.w3.org/2000/svg"
 width="600.000000pt" height="600.000000pt" viewBox="0 0 600.000000 600.000000"
 preserveAspectRatio="xMidYMid meet">
<metadata>
Created by potrace 1.14, written by Peter Selinger 2001-2017
</metadata>
<g transform="translate(0.000000,600.000000) scale(0.100000,-0.100000)"
fill="#000000" stroke="none">
<path d="M4390 5476 c-91 -64 -722 -620 -782 -689 -75 -87 -157 -242 -183
-343 -35 -139 -12 -332 56 -465 139 -276 494 -363 759 -187 30 20 65 46 78 58
13 12 25 20 28 18 7 -8 -36 -160 -67 -235 -41 -97 -93 -168 -164 -223 -69 -53
-82 -87 -43 -114 19 -14 69 -16 379 -16 332 0 357 1 372 18 26 28 20 58 -14
84 -86 65 -129 113 -167 186 -37 71 -80 191 -97 270 l-7 33 64 -46 c119 -89
217 -125 334 -125 157 0 271 45 373 147 115 115 171 260 171 441 0 116 -18
190 -75 309 -73 150 -144 230 -400 449 -77 66 -219 188 -315 270 -96 83 -186
158 -200 167 -34 23 -59 21 -100 -7z"/>
<path d="M975 5387 c-206 -53 -370 -221 -430 -442 -9 -33 -19 -108 -22 -167
-8 -142 18 -258 88 -394 59 -117 107 -181 208 -283 72 -72 133 -125 590 -516
101 -86 193 -165 204 -175 37 -36 75 -45 110 -27 18 8 212 170 432 359 307
264 419 366 481 440 143 171 224 372 224 556 0 199 -64 366 -190 493 -117 118
-242 169 -415 169 -184 0 -327 -68 -487 -233 l-77 -79 -93 94 c-97 96 -163
142 -270 186 -53 22 -81 26 -183 29 -75 1 -139 -2 -170 -10z"/>
<path d="M1561 2724 c-175 -47 -323 -201 -361 -375 -27 -123 2 -285 69 -382
17 -25 31 -48 31 -51 0 -2 -15 0 -32 5 -50 14 -177 11 -243 -6 -326 -85 -473
-481 -284 -764 143 -214 418 -283 653 -164 60 30 149 112 188 173 l29 45 -6
-40 c-4 -22 -18 -82 -31 -132 -51 -194 -121 -316 -219 -383 -25 -17 -49 -39
-54 -49 -15 -27 -2 -58 28 -71 35 -14 726 -10 739 5 6 6 13 20 17 33 7 23 -2
34 -96 112 -85 70 -156 217 -199 411 -26 116 -25 121 10 67 94 -142 252 -228
419 -228 286 1 501 215 501 500 0 236 -145 425 -371 485 -61 17 -188 20 -237
6 -17 -5 -32 -7 -32 -5 0 3 13 25 29 48 48 69 72 143 78 236 7 105 -8 179 -53
269 -102 205 -350 315 -573 255z"/>
<path d="M4408 2733 c-9 -2 -180 -196 -379 -431 -199 -235 -388 -456 -419
-492 -96 -112 -110 -133 -110 -176 1 -21 6 -49 13 -60 7 -12 174 -212 372
-444 198 -233 389 -457 423 -499 75 -90 115 -117 156 -107 32 8 48 23 156 151
41 49 231 273 423 498 l347 410 0 47 c0 46 -4 52 -112 181 -61 74 -137 163
-168 199 -31 36 -119 139 -196 230 -353 417 -407 478 -430 489 -25 11 -45 12
-76 4z"/>
</g>
</svg>
